<svg xmlns="http://www.w3.org/2000/svg" viewBox="0 0 130.04 17.15"><defs><style>.cls-1{fill:#fff;}</style></defs><title>资源 1</title><g id="图层_2" data-name="图层 2"><g id="图层_1-2" data-name="图层 1"><path class="cls-1" d="M4.43,7.85,7.85,4.43a1,1,0,0,1,1.4,0l6.4,6.4.87-.87a2,2,0,0,0,0-2.8L10,.58a2,2,0,0,0-2.8,0L.58,7.15a2,2,0,0,0,0,2.8l6.57,6.57a2,2,0,0,0,2.8,0l.87-.87-6.4-6.4A1,1,0,0,1,4.43,7.85Z"/><path class="cls-1" d="M37.85,7.2,31.28.64a2,2,0,0,0-2.8,0L23.54,5.58a1,1,0,0,1-1.4,0l-5-5a2,2,0,0,0-2.8,0l-.87.87,6,6,.45.45a1,1,0,0,1,0,1.4l-3.42,3.42a1,1,0,0,1-1.4,0l-2.39-2.39a2,2,0,0,0-2.8,0L9,11.15l5.37,5.37a2,2,0,0,0,2.8,0l5-5a1,1,0,0,1,1.4,0l4.1,4.14h0l.87.87.06.05.09.08,0,0a2,2,0,0,0,2.62-.16l.88-.88h0L37.85,10A2,2,0,0,0,37.85,7.2ZM34,9.31,30.6,12.71a1,1,0,0,1-1.4,0L25.79,9.27a1,1,0,0,1,0-1.4l3.39-3.39a1,1,0,0,1,1.4,0L34,7.91A1,1,0,0,1,34,9.31Z"/><path class="cls-1" d="M44.26,8.78c0-4.25,2.71-6.86,6.39-6.86a5.59,5.59,0,0,1,4,1.61l-.92,1a4.15,4.15,0,0,0-3-1.27c-2.85,0-4.72,2.1-4.72,5.5s1.79,5.58,4.66,5.58a4.58,4.58,0,0,0,3.45-1.52l.92.94a5.77,5.77,0,0,1-4.44,1.9C46.93,15.64,44.26,13.07,44.26,8.78Z"/><path class="cls-1" d="M56.76,10.53a5,5,0,1,1,9.9,0,5,5,0,1,1-9.9,0Zm8.22,0c0-2.34-1.35-3.91-3.29-3.91s-3.27,1.57-3.27,3.91,1.33,3.87,3.27,3.87S65,12.85,65,10.53Z"/><path class="cls-1" d="M69.23,2.53a1,1,0,0,1,1.18-1,1.06,1.06,0,0,1,1.17,1,1.08,1.08,0,0,1-1.17,1A1.06,1.06,0,0,1,69.23,2.53Zm.36,3.1H71.2V15.4H69.59Z"/><path class="cls-1" d="M74.94,5.63h1.31l.16,1.43h.06A5.4,5.4,0,0,1,80.1,5.37c2.25,0,3.29,1.32,3.29,3.82V15.4H81.75v-6c0-1.88-.64-2.72-2.13-2.72-1.14,0-2,.54-3.07,1.59V15.4H74.94Z"/><path class="cls-1" d="M89.66,3.42H85.22V2.15H95.79V3.42H91.33v12H89.66Z"/><path class="cls-1" d="M96,10.53a5,5,0,1,1,9.9,0,5,5,0,1,1-9.9,0Zm8.22,0c0-2.34-1.35-3.91-3.29-3.91S97.7,8.2,97.7,10.53,99,14.41,101,14.41,104.25,12.85,104.25,10.53Z"/><path class="cls-1" d="M109,2.15h4.22c3,0,5,.94,5,3.24A2.92,2.92,0,0,1,116,8.27v.07c1.79.31,3,1.38,3,3.19,0,2.59-2.25,3.87-5.52,3.87H109Zm3.88,5.68c2.63,0,3.68-.87,3.68-2.26,0-1.63-1.21-2.23-3.58-2.23h-2.33V7.84Zm.4,6.37c2.59,0,4.16-.85,4.16-2.73,0-1.7-1.51-2.48-4.16-2.48h-2.63v5.21Z"/><path class="cls-1" d="M121,10.53a4.89,4.89,0,0,1,4.8-5.16c2.69,0,4.24,1.76,4.24,4.58a3.9,3.9,0,0,1-.08.89h-7.35a3.54,3.54,0,0,0,3.68,3.62,5.07,5.07,0,0,0,2.73-.8l.6,1a6.72,6.72,0,0,1-3.52,1A4.87,4.87,0,0,1,121,10.53Zm7.61-.76c0-2.1-1-3.2-2.79-3.2a3.3,3.3,0,0,0-3.23,3.2Z"/></g></g></svg>